<svg width="690" height="508" viewBox="0 0 690 508" fill="none" xmlns="http://www.w3.org/2000/svg">
<path d="M274.35 23.7882L278.054 29.5302C257.556 42.6196 242.429 57.6846 232.674 74.7254C223.042 91.6428 218.226 109.795 218.226 129.182C218.226 154.126 226.747 177.958 243.787 200.679C250.95 194.752 255.272 189.813 256.753 185.861C258.235 181.786 258.976 171.414 258.976 154.743V69.5391L339.92 0.449707C354.985 7.73527 367.642 12.7981 377.891 15.6383C388.264 18.4784 398.451 19.8985 408.454 19.8985C413.64 19.8985 420.061 19.3428 427.717 18.2314L432.348 23.7882L332.517 123.996H419.408L389.375 151.224L327.88 169.561V207.718V243.281C345.415 243.281 372.088 242.047 389.375 233.279C402.465 226.734 431.312 199.815 445.143 185.861L449.992 189.532C435.667 211.883 406.663 246.677 389.375 257.544C368.26 270.757 344.18 277.363 317.137 277.363C274.535 277.363 240.886 262.668 216.189 233.279C196.555 209.941 186.738 182.589 186.738 151.224C186.738 131.713 190.751 113.561 198.778 96.7674C206.804 79.85 218.103 64.7232 232.674 51.3869C243.047 42.0021 256.939 32.8026 274.35 23.7882ZM319.36 32.8643L296.762 51.7574V137.702C296.762 147.211 296.207 153.817 295.095 157.522C294.107 161.226 291.699 165.239 287.871 169.561C279.721 179.193 266.632 191.48 248.603 206.421C259.346 217.782 269.966 226.241 280.462 231.797C291.082 237.354 304.048 241.182 319.36 243.281V32.8643ZM390.301 53.7949C377.336 51.9426 366.654 49.7199 358.257 47.1267C349.984 44.5336 339.858 40.2734 327.88 34.3461V117.142L390.301 53.7949Z" fill="black"/>
<path d="M243.235 201.117L248.579 206.218C234.378 208.317 190.89 239.327 183.851 245.501C176.813 251.552 173.294 260.566 173.294 272.544C173.294 279.089 173.973 288.535 175.331 300.884C177.801 322.123 179.036 339.473 179.036 352.932C179.036 371.085 174.961 387.014 166.811 400.721C158.784 414.304 139.891 433.815 110.131 459.252C129.642 452.955 147.177 449.806 162.736 449.806C176.936 449.806 189.655 451.782 200.892 455.733C212.253 459.561 224.848 466.291 238.678 475.923L385.933 285.51L392.046 286.992L223.477 507.041C210.388 497.285 188.42 490.185 175.331 485.74C162.365 481.171 147.177 478.886 129.765 478.886C113.589 478.886 98.3386 480.8 84.0145 484.628C69.8138 488.456 51.4764 495.927 29.0022 507.041L25.2977 501.854C47.6483 485.307 62.4665 472.095 69.752 462.216C77.0376 452.214 80.6804 442.829 80.6804 434.062C80.6804 425.665 78.0255 418.688 72.7156 413.131C67.4058 407.451 61.2934 404.611 54.3782 404.611C50.9207 404.611 46.9692 405.66 42.5238 407.759L36.967 402.388C41.5359 398.313 45.7343 395.473 49.5624 393.867C53.3904 392.262 57.8358 391.46 62.8987 391.46C65.8623 391.46 68.8876 391.892 71.9747 392.756C75.0618 393.497 78.1489 394.732 81.2361 396.461C81.483 393.62 81.6065 391.336 81.6065 389.607C81.6065 381.704 78.6429 374.851 72.7156 369.047C66.7884 363.243 59.5028 360.341 50.8589 360.341C44.6847 360.341 38.3253 362.811 31.7806 367.751L25.2977 363.305C29.8666 357.254 34.559 352.994 39.3749 350.524C47.0309 346.45 55.1809 344.412 63.8248 344.412C65.677 344.412 67.7145 344.597 69.9372 344.968C72.16 345.215 74.5062 345.647 76.9758 346.264C76.2349 338.732 75.8645 332.434 75.8645 327.371C75.8645 312.43 78.0872 299.711 82.5326 289.215C87.1016 278.718 94.8811 267.79 105.871 256.43C94.0167 260.628 83.9527 262.727 75.6793 262.727C67.5293 262.727 57.2184 260.813 44.7465 256.985C39.0662 255.256 34.559 254.392 31.225 254.392C24.8038 254.392 19.3705 256.43 14.925 260.505C10.6031 264.58 8.44212 269.457 8.44212 275.137C8.44212 277.237 8.9978 279.706 10.1092 282.546L2.14442 285.325C0.786097 279.521 0.106934 274.705 0.106934 270.877C0.106934 258.899 4.73759 248.527 13.9989 239.759C23.2602 230.868 34.3738 226.423 47.3396 226.423C53.2669 226.423 62.4047 228.646 74.7531 233.091C87.225 237.536 96.9185 239.759 103.834 239.759C116.429 239.759 128.407 235.314 139.768 226.423L145.139 233.091C132.791 242.352 124.085 251.49 119.022 260.505C114.083 269.519 111.613 280.447 111.613 293.29C111.613 302.798 112.231 313.788 113.465 326.26C115.935 349.722 117.17 365.651 117.17 374.048C117.17 391.953 114.268 408.192 108.464 422.763C102.661 437.21 92.1644 453.943 76.9758 472.959C100.067 456.536 116.614 439.68 126.616 422.392C136.742 405.105 141.805 385.656 141.805 364.046C141.805 351.821 140.941 338.423 139.212 323.852C137.483 309.157 136.619 296.809 136.619 286.807C136.619 277.916 138.718 269.148 142.916 260.505C147.115 251.861 152.672 245.069 159.587 240.13C166.502 235.19 174.158 231.609 182.555 229.387C188.853 227.781 230.269 201.487 243.235 201.117Z" fill="black"/>
<path d="M321.475 507.041L293.32 478.886L321.475 450.547L349.814 478.886L321.475 507.041Z" fill="black"/>
<path d="M559.305 226.423L566.159 230.683C555.909 248.218 548.624 263.715 544.302 277.175C539.98 290.635 537.14 306.379 535.781 324.408L606.723 268.099L649.881 318.295L576.161 370.899C587.521 376.95 597.4 384.483 605.797 393.497C614.317 402.388 624.196 416.342 635.433 435.358C646.67 454.375 653.524 465.241 655.993 467.958C658.463 470.551 660.871 471.848 663.217 471.848C665.563 471.848 669.144 469.44 673.96 464.624L683.592 455.548L689.334 462.401L643.213 507.041C636.791 502.595 631.729 498.026 628.024 493.334C624.32 488.518 616.231 474.935 603.759 452.584L555.971 507.041C541.153 500.496 527.755 495.804 515.777 492.964C503.799 490.123 491.512 488.703 478.917 488.703C466.569 488.703 454.467 490.123 442.613 492.964C430.758 495.68 417.113 500.373 401.678 507.041L395.75 498.52C419.953 479.257 437.303 462.154 447.799 447.213C452.985 439.804 455.578 432.641 455.578 425.726C455.578 419.182 453.417 413.748 449.095 409.426C444.774 405.105 439.649 402.944 433.722 402.944C428.288 402.944 423.473 405.66 419.274 411.093L412.791 408.13C415.014 400.844 418.718 395.226 423.905 391.274C429.215 387.199 435.204 385.162 441.872 385.162C446.194 385.162 450.701 386.026 455.393 387.755C460.086 389.484 464.963 392.139 470.026 395.72C470.273 391.768 470.397 388.311 470.397 385.347C470.397 372.134 466.568 361.453 458.912 353.303C451.256 345.153 442.057 341.078 431.314 341.078C425.14 341.078 418.965 343.795 412.791 349.228L406.679 346.82C409.642 338.917 414.026 332.99 419.83 329.038C425.633 324.963 432.363 322.926 440.019 322.926C444.094 322.926 448.478 323.79 453.17 325.519C457.986 327.124 463.049 329.594 468.359 332.928C468.112 327.742 467.989 323.234 467.989 319.406C467.989 307.922 470.335 297.797 475.027 289.029C479.72 280.262 493.118 264.333 515.221 241.241C502.132 248.774 491.759 253.836 484.103 256.43C476.571 258.899 469.1 260.134 461.691 260.134C457.739 260.134 452.615 259.578 446.317 258.467C440.019 257.356 435.512 256.8 432.796 256.8C423.781 256.8 416.125 259.146 409.828 263.839C403.653 268.408 397.726 276.125 392.046 286.992L385.933 285.51C388.526 273.038 391.675 263.715 395.38 257.541C401.184 247.662 408.407 240.006 417.051 234.573C425.819 229.14 434.648 226.423 443.539 226.423C450.454 226.423 459.036 228.028 469.285 231.239C479.534 234.449 487.931 236.055 494.476 236.055C505.219 236.055 516.765 232.844 529.113 226.423L535.781 230.683C525.656 245.501 518 262.48 512.813 281.62C507.751 300.637 505.219 319.098 505.219 337.003L505.96 389.792C505.96 397.695 504.725 404.981 502.255 411.649C499.786 418.194 496.205 424.121 491.512 429.431C486.943 434.617 484.103 437.704 482.992 438.692L428.535 484.258C438.044 479.195 448.231 474.317 459.098 469.625C478.855 461.228 492.932 453.942 501.329 447.768C509.85 441.594 516.394 433.753 520.963 424.245C525.532 414.613 527.817 402.45 527.817 387.755L526.891 330.15C526.891 316.196 529.298 300.328 534.114 282.546C539.054 264.641 547.451 245.933 559.305 226.423ZM582.829 297.735L535.781 335.521V341.078L536.152 370.529L535.781 388.496L613.576 333.484L582.829 297.735ZM599.684 445.36C588.2 426.961 577.581 414.366 567.826 407.574C558.07 400.659 547.389 396.955 535.781 396.461C535.411 410.414 532.633 422.022 527.446 431.283C522.383 440.544 513.801 449.435 501.7 457.956C520.716 458.944 534.732 460.549 543.746 462.772C552.76 464.994 562.763 468.946 573.753 474.626L599.684 445.36Z" fill="black"/>
</svg>
