<svg width="43" height="44" viewBox="0 0 43 44" fill="none" xmlns="http://www.w3.org/2000/svg">
<path d="M13.9749 4.0835H29.0249C34.7583 4.0835 39.4166 8.74183 39.4166 14.4752V29.5252C39.4166 32.2812 38.3218 34.9244 36.3729 36.8732C34.4241 38.822 31.781 39.9168 29.0249 39.9168H13.9749C8.24159 39.9168 3.58325 35.2585 3.58325 29.5252V14.4752C3.58325 11.7191 4.67809 9.07596 6.6269 7.12714C8.57572 5.17833 11.2189 4.0835 13.9749 4.0835ZM13.6166 7.66683C11.9059 7.66683 10.2654 8.34638 9.05575 9.55599C7.84614 10.7656 7.16659 12.4062 7.16659 14.1168V29.8835C7.16659 33.4489 10.0512 36.3335 13.6166 36.3335H29.3833C31.0939 36.3335 32.7345 35.6539 33.9441 34.4443C35.1537 33.2347 35.8333 31.5941 35.8333 29.8835V14.1168C35.8333 10.5514 32.9487 7.66683 29.3833 7.66683H13.6166ZM30.9062 10.3543C31.5001 10.3543 32.0698 10.5903 32.4898 11.0103C32.9098 11.4303 33.1458 11.9999 33.1458 12.5939C33.1458 13.1879 32.9098 13.7575 32.4898 14.1775C32.0698 14.5975 31.5001 14.8335 30.9062 14.8335C30.3122 14.8335 29.7425 14.5975 29.3225 14.1775C28.9025 13.7575 28.6666 13.1879 28.6666 12.5939C28.6666 11.9999 28.9025 11.4303 29.3225 11.0103C29.7425 10.5903 30.3122 10.3543 30.9062 10.3543ZM21.4999 13.0418C23.8758 13.0418 26.1544 13.9857 27.8344 15.6657C29.5144 17.3457 30.4583 19.6243 30.4583 22.0002C30.4583 24.3761 29.5144 26.6546 27.8344 28.3347C26.1544 30.0147 23.8758 30.9585 21.4999 30.9585C19.124 30.9585 16.8454 30.0147 15.1654 28.3347C13.4854 26.6546 12.5416 24.3761 12.5416 22.0002C12.5416 19.6243 13.4854 17.3457 15.1654 15.6657C16.8454 13.9857 19.124 13.0418 21.4999 13.0418ZM21.4999 16.6252C20.0744 16.6252 18.7072 17.1915 17.6992 18.1995C16.6912 19.2075 16.1249 20.5746 16.1249 22.0002C16.1249 23.4257 16.6912 24.7929 17.6992 25.8009C18.7072 26.8089 20.0744 27.3752 21.4999 27.3752C22.9255 27.3752 24.2926 26.8089 25.3006 25.8009C26.3086 24.7929 26.8749 23.4257 26.8749 22.0002C26.8749 20.5746 26.3086 19.2075 25.3006 18.1995C24.2926 17.1915 22.9255 16.6252 21.4999 16.6252Z" fill="black"/>
</svg>
