<svg width="53" height="54" viewBox="0 0 53 54" fill="none" xmlns="http://www.w3.org/2000/svg">
<path d="M8.8333 44.6668C7.61871 44.6668 6.57859 44.234 5.71292 43.3683C4.84725 42.5027 4.41516 41.4633 4.41663 40.2502V13.7502C4.41663 12.5356 4.84946 11.4955 5.71513 10.6298C6.5808 9.76412 7.62019 9.33203 8.8333 9.3335H44.1666C45.3812 9.3335 46.4213 9.76633 47.287 10.632C48.1527 11.4977 48.5848 12.5371 48.5833 13.7502V40.2502C48.5833 41.4647 48.1505 42.5049 47.2848 43.3705C46.4191 44.2362 45.3797 44.6683 44.1666 44.6668H8.8333ZM26.5 29.2085L8.8333 18.1668V40.2502H44.1666V18.1668L26.5 29.2085ZM26.5 24.7918L44.1666 13.7502H8.8333L26.5 24.7918ZM8.8333 18.1668V13.7502V40.2502V18.1668Z" fill="black"/>
</svg>
