<svg width="43" height="43" viewBox="0 0 43 43" fill="none" xmlns="http://www.w3.org/2000/svg">
<g clip-path="url(#clip0_96_72)">
<path d="M21.4999 3.5835C31.3953 3.5835 39.4166 11.6048 39.4166 21.5002C39.4166 31.3955 31.3953 39.4168 21.4999 39.4168C11.6045 39.4168 3.58325 31.3955 3.58325 21.5002C3.58325 11.6048 11.6045 3.5835 21.4999 3.5835ZM21.4999 7.16683C17.6985 7.16683 14.0527 8.67694 11.3647 11.365C8.6767 14.053 7.16659 17.6987 7.16659 21.5002C7.16659 25.3016 8.6767 28.9473 11.3647 31.6354C14.0527 34.3234 17.6985 35.8335 21.4999 35.8335C25.3014 35.8335 28.9471 34.3234 31.6351 31.6354C34.3231 28.9473 35.8333 25.3016 35.8333 21.5002C35.8333 17.6987 34.3231 14.053 31.6351 11.365C28.9471 8.67694 25.3014 7.16683 21.4999 7.16683ZM13.8459 25.2824C16.3865 24.6983 19.1045 24.7055 21.4551 25.0692C23.7413 25.4239 25.9594 26.1621 27.3264 27.2801C27.6809 27.568 27.9121 27.9804 27.9727 28.4331C28.0333 28.8857 27.9188 29.3444 27.6525 29.7154C27.3862 30.0865 26.9883 30.3418 26.5401 30.4293C26.0919 30.5168 25.6272 30.4298 25.2409 30.1862L25.0582 30.0554C24.4203 29.5322 22.9476 28.9266 20.9051 28.6113C18.9253 28.3031 16.6732 28.3103 14.6486 28.7743C14.4181 28.8305 14.1787 28.8404 13.9443 28.8033C13.71 28.7662 13.4853 28.683 13.2834 28.5584C13.0814 28.4338 12.9063 28.2703 12.7681 28.0775C12.6298 27.8846 12.5313 27.6663 12.4781 27.435C12.425 27.2038 12.4183 26.9643 12.4584 26.7304C12.4986 26.4966 12.5848 26.273 12.712 26.0728C12.8393 25.8725 13.005 25.6995 13.1997 25.5638C13.3943 25.4281 13.614 25.3325 13.8459 25.2824ZM12.9143 20.3893C18.7533 18.7607 25.5455 19.6816 29.6896 22.2258C30.0947 22.4745 30.3844 22.874 30.4949 23.3364C30.6055 23.7987 30.5278 24.286 30.2791 24.6911C30.0303 25.0962 29.6308 25.3859 29.1685 25.4964C28.7062 25.607 28.2188 25.5293 27.8138 25.2806C24.6192 23.3187 18.8733 22.448 13.8746 23.8401C13.6457 23.9108 13.405 23.935 13.1666 23.9111C12.9282 23.8872 12.6971 23.8157 12.4868 23.7009C12.2765 23.5861 12.0914 23.4303 11.9424 23.2427C11.7934 23.0551 11.6835 22.8395 11.6193 22.6087C11.5551 22.3779 11.5378 22.1366 11.5685 21.899C11.5991 21.6614 11.6771 21.4323 11.7979 21.2254C11.9186 21.0185 12.0796 20.8379 12.2714 20.6943C12.4631 20.5507 12.6817 20.447 12.9143 20.3893ZM12.0578 15.2544C18.7945 13.3732 25.4864 14.3496 31.1678 16.8024C31.6002 16.9933 31.9397 17.3474 32.1122 17.7874C32.2848 18.2275 32.2765 18.718 32.089 19.1519C31.9016 19.5859 31.5503 19.9282 31.1116 20.1042C30.6729 20.2803 30.1824 20.2759 29.747 20.0919C24.6765 17.9007 18.8285 17.0855 13.0218 18.7052C12.7938 18.7729 12.5547 18.7946 12.3183 18.7689C12.082 18.7433 11.8531 18.6709 11.6449 18.5559C11.4368 18.4409 11.2537 18.2857 11.1062 18.0992C10.9587 17.9127 10.8498 17.6987 10.7858 17.4697C10.7219 17.2407 10.7041 17.0013 10.7336 16.7654C10.7631 16.5294 10.8393 16.3018 10.9577 16.0956C11.0761 15.8894 11.2343 15.7088 11.4232 15.5644C11.6121 15.42 11.8278 15.3146 12.0578 15.2544Z" fill="black"/>
</g>
<defs>
<clipPath id="clip0_96_72">
<rect width="43" height="43" fill="white"/>
</clipPath>
</defs>
</svg>
